<?xml version="1.0" encoding="UTF-8"?>
<svg version="1.1" xmlns="http://www.w3.org/2000/svg" width="359" height="532">
<path d="M0 0 C118.47 0 236.94 0 359 0 C359 175.56 359 351.12 359 532 C240.53 532 122.06 532 0 532 C0 356.44 0 180.88 0 0 Z " fill="#E40F64" transform="translate(0,0)"/>
<path d="M0 0 C3.52844737 1.28618166 7.07345946 2.52167078 10.62176514 3.75184631 C13.85821879 4.87566158 17.09012441 6.01218088 20.32122803 7.15127563 C21.91320729 7.71120608 23.50633076 8.26789523 25.10064697 8.82113647 C42.13251175 14.75238314 53.85175875 22.07818675 61.99780273 38.76611328 C79.16975978 76.4170925 75.9676973 125.22059523 75.98291016 165.68701172 C75.9834993 166.39440868 75.98408844 167.10180565 75.98469543 167.83063889 C75.98807412 172.59142452 75.97903943 177.35203083 75.96337891 182.11279297 C75.96216537 183.33215546 75.96095184 184.55151794 75.95970154 185.80783081 C75.92692066 191.77289836 75.60992279 197.4708436 74.79541016 203.37451172 C74.6600956 205.54345876 74.57581343 207.71086677 74.4954071 209.88249207 C74.10171063 220.43387629 72.73641168 230.66157574 70.98291016 241.06201172 C70.70809714 242.73034957 70.43401831 244.39880852 70.16064453 246.06738281 C69.62225696 249.34651119 69.07836896 252.62466215 68.53125 255.90234375 C67.89245856 259.75130435 67.29712528 263.60542927 66.72119141 267.46435547 C61.62890225 301.08506722 61.62890225 301.08506722 53.79541016 312.37451172 C52.80541016 312.70451172 51.81541016 313.03451172 50.79541016 313.37451172 C50.86373047 314.52822266 50.93205078 315.68193359 51.00244141 316.87060547 C50.99927969 321.65849722 49.5363178 325.17732705 47.48291016 329.43701172 C46.8616529 330.78198829 46.24055785 332.1270398 45.61962891 333.47216797 C45.31589355 334.11686035 45.0121582 334.76155273 44.69921875 335.42578125 C43.32898436 338.38018723 42.06314037 341.37486699 40.79541016 344.37451172 C39.47541016 344.04451172 38.15541016 343.71451172 36.79541016 343.37451172 C37.15634766 342.58431641 37.51728516 341.79412109 37.88916016 340.97998047 C42.14544863 330.63483487 42.32742317 321.46402752 41.79541016 310.37451172 C42.78541016 310.04451172 43.77541016 309.71451172 44.79541016 309.37451172 C45.45541016 309.70451172 46.11541016 310.03451172 46.79541016 310.37451172 C46.79541016 309.71451172 46.79541016 309.05451172 46.79541016 308.37451172 C46.13541016 308.37451172 45.47541016 308.37451172 44.79541016 308.37451172 C44.57052696 302.97028742 45.30676906 298.56175929 46.79541016 293.43701172 C46.98619141 292.75316406 47.17697266 292.06931641 47.37353516 291.36474609 C47.83945953 289.69906646 48.31629426 288.03644497 48.79541016 286.37451172 C49.12541016 286.37451172 49.45541016 286.37451172 49.79541016 286.37451172 C49.92992788 292.42780916 49.40506215 298.35419828 48.79541016 304.37451172 C50.98388845 298.56048568 51.73393885 292.74377041 52.56298828 286.62646484 C53.38904609 280.95359268 54.80962269 275.75137596 56.79541016 270.37451172 C57.45541016 270.70451172 58.11541016 271.03451172 58.79541016 271.37451172 C60.77925726 267.4068175 60.1217158 262.51921686 58.79541016 258.37451172 C59.45541016 258.37451172 60.11541016 258.37451172 60.79541016 258.37451172 C61.57583064 255.25282978 61.82135723 252.44539935 61.73291016 249.24951172 C61.79541016 245.37451172 61.79541016 245.37451172 63.79541016 242.37451172 C64.2520544 240.10863156 64.2520544 240.10863156 64.42822266 237.58544922 C64.51201172 236.64314453 64.59580078 235.70083984 64.68212891 234.72998047 C64.76076172 233.74642578 64.83939453 232.76287109 64.92041016 231.74951172 C65.04996094 230.30898438 65.04996094 230.30898438 65.18212891 228.83935547 C65.68111945 223.00195818 66.06428608 217.23133084 65.79541016 211.37451172 C65.13541016 210.71451172 64.47541016 210.05451172 63.79541016 209.37451172 C63.13541016 210.03451172 62.47541016 210.69451172 61.79541016 211.37451172 C61.81861328 210.69646484 61.84181641 210.01841797 61.86572266 209.31982422 C61.99224771 202.7947463 61.57315622 196.68096854 59.79541016 190.37451172 C59.46541016 190.04451172 59.13541016 189.71451172 58.79541016 189.37451172 C58.66263672 190.49470703 58.52986328 191.61490234 58.39306641 192.76904297 C58.21484446 194.24171901 58.03645005 195.71437419 57.85791016 197.18701172 C57.72739258 198.29399414 57.72739258 198.29399414 57.59423828 199.42333984 C57.21324469 202.54184293 56.79171641 205.38559294 55.79541016 208.37451172 C55.13541016 208.37451172 54.47541016 208.37451172 53.79541016 208.37451172 C53.79541016 203.09451172 53.79541016 197.81451172 53.79541016 192.37451172 C53.13541016 192.37451172 52.47541016 192.37451172 51.79541016 192.37451172 C51.73933594 193.20982422 51.73933594 193.20982422 51.68212891 194.06201172 C51.19980379 199.66076596 49.96299136 204.19116536 47.79541016 209.37451172 C45.22924384 205.52526224 45.2444334 202.93958132 44.79541016 198.37451172 C42.52321077 204.21731014 41.73070446 210.21066247 40.79541016 216.37451172 C40.68583984 217.08945801 40.57626953 217.8044043 40.46337891 218.54101562 C38.48355222 231.47243856 36.6290943 244.42167905 34.79541016 257.37451172 C34.13541016 257.37451172 33.47541016 257.37451172 32.79541016 257.37451172 C32.46541016 254.07451172 32.13541016 250.77451172 31.79541016 247.37451172 C30.80541016 252.32451172 29.81541016 257.27451172 28.79541016 262.37451172 C28.13541016 262.04451172 27.47541016 261.71451172 26.79541016 261.37451172 C26.38134766 258.43310547 26.38134766 258.43310547 26.17041016 254.81201172 C26.09564453 253.61447266 26.02087891 252.41693359 25.94384766 251.18310547 C25.87037109 249.79285156 25.87037109 249.79285156 25.79541016 248.37451172 C25.56990479 249.52560425 25.56990479 249.52560425 25.33984375 250.69995117 C24.62012937 254.36298731 23.89674432 258.02528342 23.17041016 261.68701172 C23.03801941 262.35446411 22.90562866 263.0219165 22.76922607 263.70959473 C20.54674805 274.88313555 18.15432691 286.00922174 15.625 297.11791992 C15.38475098 298.17712646 15.14450195 299.23633301 14.89697266 300.32763672 C14.68379395 301.25737305 14.47061523 302.18710937 14.25097656 303.14501953 C13.72867694 305.32183666 13.72867694 305.32183666 13.79541016 307.37451172 C13.97716797 306.81763672 14.15892578 306.26076172 14.34619141 305.68701172 C16.044032 300.53254181 17.85963251 295.44440557 19.79541016 290.37451172 C20.12541016 290.37451172 20.45541016 290.37451172 20.79541016 290.37451172 C20.3477256 298.15267587 19.02936056 305.27650446 16.85791016 312.74951172 C16.55216064 313.8160498 16.24641113 314.88258789 15.93139648 315.98144531 C9.68266572 337.35225901 2.22308584 358.19730098 -7.20458984 378.37451172 C-7.55763184 379.13038574 -7.91067383 379.88625977 -8.27441406 380.66503906 C-11.80721115 388.14158091 -15.67736473 395.38513299 -19.89208984 402.49951172 C-20.24859619 403.1034375 -20.60510254 403.70736328 -20.97241211 404.32958984 C-23.40989711 408.34493375 -26.13657328 411.83903904 -29.20458984 415.37451172 C-11.91520951 405.9108509 -0.29715462 379.96018604 6.79541016 362.37451172 C7.45541016 362.37451172 8.11541016 362.37451172 8.79541016 362.37451172 C8.98103516 361.16794922 8.98103516 361.16794922 9.17041016 359.93701172 C9.37666016 359.09138672 9.58291016 358.24576172 9.79541016 357.37451172 C10.45541016 357.04451172 11.11541016 356.71451172 11.79541016 356.37451172 C11.36858455 359.87448166 10.72415129 362.52843086 9.23291016 365.74951172 C7.90746858 369.0919296 7.68733093 370.14821042 7.92041016 373.49951172 C7.75953932 378.48650761 6.24777515 378.95706949 2.79541016 382.37451172 C0.96619027 385.57920222 0.96619027 385.57920222 -0.57958984 389.06201172 C-3.55237657 395.319519 -7.10141816 400.78620133 -11.20458984 406.37451172 C-12.21350407 407.86853049 -13.21370633 409.36847391 -14.20458984 410.87451172 C-17.44640058 415.77227443 -20.81845031 420.57581102 -24.20458984 425.37451172 C-22.61830376 424.77814081 -21.03566925 424.17205247 -19.45458984 423.56201172 C-18.57287109 423.22556641 -17.69115234 422.88912109 -16.78271484 422.54248047 C-14.25027896 421.39521027 -12.29293281 420.20361211 -10.20458984 418.37451172 C-10.06021484 417.71451172 -9.91583984 417.05451172 -9.76708984 416.37451172 C-8.92992969 413.3979423 -6.77728948 412.9181315 -4.20458984 411.37451172 C-3.32636672 409.28917539 -3.32636672 409.28917539 -3.20458984 407.37451172 C-1.39208984 407.56201172 -1.39208984 407.56201172 0.79541016 408.37451172 C1.84506086 410.01036354 2.85011043 411.67622252 3.79541016 413.37451172 C3.19212891 413.88240234 2.58884766 414.39029297 1.96728516 414.91357422 C-3.35918889 419.40017594 -3.35918889 419.40017594 -7.57958984 424.87451172 C-8.38396484 426.11201172 -8.38396484 426.11201172 -9.20458984 427.37451172 C-10.19458984 427.37451172 -11.18458984 427.37451172 -12.20458984 427.37451172 C-15.17711794 428.5868369 -17.08366005 430.11729584 -19.32958984 432.37451172 C-27.7020653 439.59152802 -42.60952773 438.47626738 -53.24145508 439.54907227 C-61.35804142 440.37438719 -69.36504502 441.28766001 -77.35302734 442.97607422 C-86.62016373 444.9334667 -96.92579197 446.70844849 -105.49365234 441.64013672 C-106.05826172 441.22248047 -106.62287109 440.80482422 -107.20458984 440.37451172 C-108.00380859 439.78927734 -108.80302734 439.20404297 -109.62646484 438.60107422 C-137.11546948 414.86057022 -142.30403488 370.8621717 -146.39208984 337.18701172 C-146.51951065 336.15330948 -146.51951065 336.15330948 -146.64950562 335.09872437 C-148.93839489 316.30684532 -149.39132789 297.51940959 -149.38989258 278.60205078 C-149.39208772 275.37763415 -149.41036193 272.15355629 -149.42919922 268.92919922 C-149.45738894 258.34638463 -149.1512742 247.95675497 -147.96092224 237.43797302 C-147.36705016 232.18590539 -146.973617 226.97289579 -146.78271484 221.69091797 C-146.74338585 220.63243401 -146.74338585 220.63243401 -146.70326233 219.55256653 C-146.64969092 218.10201676 -146.59630323 216.6514602 -146.54309082 215.20089722 C-145.65117513 192.38538638 -142.5845082 169.93564281 -139.20458984 147.37451172 C-139.00549011 146.03323212 -139.00549011 146.03323212 -138.80236816 144.66485596 C-137.92087323 138.73053032 -137.01030394 132.80130215 -136.07958984 126.87451172 C-135.9636145 126.12136688 -135.84763916 125.36822205 -135.72814941 124.59225464 C-134.10252409 114.1233491 -131.56703356 104.25055877 -128.12084961 94.22021484 C-127.0705347 90.95816565 -126.56018539 87.75701287 -126.01708984 84.37451172 C-124.56479183 76.32736876 -121.56819822 69.30669866 -117.20458984 62.37451172 C-112.99978225 59.57130666 -110.02063678 60.49372461 -105.20458984 61.37451172 C-104.04958984 61.72513672 -102.89458984 62.07576172 -101.70458984 62.43701172 C-98.65488268 63.25389757 -96.58065152 63.47546147 -93.48583984 63.43310547 C-92.68210938 63.424646 -91.87837891 63.41618652 -91.05029297 63.4074707 C-90.44121094 63.39659424 -89.83212891 63.38571777 -89.20458984 63.37451172 C-88.71168457 62.3269873 -88.2187793 61.27946289 -87.7109375 60.20019531 C-85.84230784 56.23861325 -83.95542079 52.28594283 -82.06347656 48.33544922 C-81.25394428 46.63885921 -80.44909108 44.94002696 -79.64941406 43.23876953 C-70.42675645 23.6362827 -58.57264256 2.49879602 -37.24365234 -5.77392578 C-24.04867516 -9.47123301 -12.30904765 -4.49763828 0 0 Z " fill="#010000" transform="translate(213.20458984375,47.62548828125)"/>
<path d="M0 0 C118.47 0 236.94 0 359 0 C359 175.56 359 351.12 359 532 C240.53 532 122.06 532 0 532 C0 356.44 0 180.88 0 0 Z M19 7 C19 177.94 19 348.88 19 525 C122.95 525 226.9 525 334 525 C334 354.06 334 183.12 334 7 C230.05 7 126.1 7 19 7 Z " fill="#F8D7CD" transform="translate(0,0)"/>
<path d="M0 0 C0.66 0 1.32 0 2 0 C4.16683358 8.5037997 5.2724984 16.76934458 5.5859375 25.53125 C5.6252388 26.5584314 5.6645401 27.58561279 5.70503235 28.6439209 C6.14951891 41.50935406 6.18718067 54.37938246 6.18530273 67.25097656 C6.18522185 70.06940175 6.19212744 72.88766304 6.20581055 75.70605469 C6.33151327 102.04288305 4.94053538 128.12077562 2.484375 154.3515625 C2.12895228 158.28187657 1.85945883 162.20819924 1.640625 166.1484375 C0.52920718 185.37567492 -2.5011245 204.08907808 -6 223 C-6.18496033 224.01018188 -6.18496033 224.01018188 -6.37365723 225.04077148 C-10.80682404 249.22195341 -17.78854407 272.1465241 -26.0625 295.25 C-26.30599182 295.93606323 -26.54948364 296.62212646 -26.800354 297.32897949 C-31.40284654 310.2376996 -37.12335222 322.26599712 -44.25 334 C-47.01826855 338.59396713 -49.67104662 343.16061634 -52 348 C-54.3125 347.8125 -54.3125 347.8125 -57 347 C-58.6875 344.5 -58.6875 344.5 -60 342 C-60.66 341.67 -61.32 341.34 -62 341 C-61.69964844 341.59167969 -61.39929688 342.18335938 -61.08984375 342.79296875 C-58 349.21355932 -58 349.21355932 -58 352.9375 C-59.24872421 355.51299368 -60.45304195 355.85489588 -63 357 C-63.32613281 356.27554687 -63.65226562 355.55109375 -63.98828125 354.8046875 C-66.7437596 348.70125727 -66.7437596 348.70125727 -69.6875 342.6875 C-71.0716458 339.85329669 -72.02479979 336.99525778 -73 334 C-73.33 333.67 -73.66 333.34 -74 333 C-74.2493357 331.39884424 -74.47378648 329.79379841 -74.6875 328.1875 C-75.66033632 322.3957303 -77.8646527 317.89763056 -80.7578125 312.82421875 C-82.16485033 309.62519877 -82.14995683 307.4583795 -82 304 C-82.7840433 300.25317864 -82.7840433 300.25317864 -84 297 C-84.66 296.67 -85.32 296.34 -86 296 C-85.69463301 299.14656903 -85.37951468 302.29208482 -85.0625 305.4375 C-84.97548828 306.33533203 -84.88847656 307.23316406 -84.79882812 308.15820312 C-84.71181641 309.01220703 -84.62480469 309.86621094 -84.53515625 310.74609375 C-84.456604 311.53685303 -84.37805176 312.3276123 -84.29711914 313.14233398 C-84.18448501 315.01103348 -84.18448501 315.01103348 -83 316 C-82.80919592 317.48815978 -82.67670541 318.98390392 -82.5703125 320.48046875 C-82.49683594 321.39763672 -82.42335937 322.31480469 -82.34765625 323.25976562 C-82.20073972 325.19158912 -82.05998162 327.12389213 -81.92578125 329.05664062 C-81.48335033 334.42955177 -80.68783387 338.22741964 -78 343 C-78.3125 345.875 -78.3125 345.875 -79 348 C-84.16609059 344.55593961 -84.80076822 338.13389796 -86.5 332.375 C-86.70142609 331.700065 -86.90285217 331.02513 -87.11038208 330.32974243 C-90.86134482 317.64448777 -92.92930711 305.19093635 -94 292 C-94.20207348 289.78115399 -94.40522782 287.56240618 -94.609375 285.34375 C-96.48601603 264.05921744 -96.48601603 264.05921744 -96 256 C-95.67 255.67 -95.34 255.34 -95 255 C-92.98901895 255.02323613 -90.97788162 255.05257307 -88.96777344 255.11621094 C-81.16685352 255.34156399 -74.73543743 255.42059752 -68 251 C-67.11248047 250.42765625 -67.11248047 250.42765625 -66.20703125 249.84375 C-64.7976198 248.90637421 -63.39780422 247.95459801 -62 247 C-61.34 247 -60.68 247 -60 247 C-60.33 246.01 -60.66 245.02 -61 244 C-62.95092519 243.5370686 -64.9031571 243.07853887 -66.86328125 242.65625 C-70.89109659 241.41918789 -73.84285512 238.79777873 -76.12890625 235.24609375 C-77.2765076 232.28703197 -77.39332903 229.60135713 -77.5625 226.4375 C-77.75337238 223.0056926 -77.91162533 220.26512402 -79 217 C-79.99 217 -80.98 217 -82 217 C-82.10055982 206.94401799 -82.09945892 197.01292948 -81 187 C-79.35 187.33 -77.7 187.66 -76 188 C-76.04125 186.948125 -76.0825 185.89625 -76.125 184.8125 C-76.13359457 179.93078695 -75.30934471 175.26313537 -74.4921875 170.4609375 C-73.84450591 165.90660506 -73.71058052 161.37381875 -73.63671875 156.77734375 C-72.78681886 153.07011172 -70.95362865 152.27167464 -68 150 C-66.90408554 147.470763 -66.90408554 147.470763 -66.4375 144.625 C-66.20933594 143.57957031 -65.98117188 142.53414062 -65.74609375 141.45703125 C-65.49988281 140.31621094 -65.25367188 139.17539063 -65 138 C-64.35842509 135.4311029 -63.69182148 132.8683235 -63 130.3125 C-62.690625 129.13300781 -62.38125 127.95351562 -62.0625 126.73828125 C-61.711875 125.83464844 -61.36125 124.93101562 -61 124 C-60.01 123.67 -59.02 123.34 -58 123 C-57.67 124.98 -57.34 126.96 -57 129 C-56.74605469 128.43410156 -56.49210937 127.86820312 -56.23046875 127.28515625 C-55.88628906 126.55167969 -55.54210937 125.81820312 -55.1875 125.0625 C-54.85105469 124.33160156 -54.51460937 123.60070312 -54.16796875 122.84765625 C-53 121 -53 121 -50 120 C-50 120.99 -50 121.98 -50 123 C-49.34 123 -48.68 123 -48 123 C-47.90203125 122.19425537 -47.8040625 121.38851074 -47.703125 120.55834961 C-46.64787569 112.77190602 -44.82619293 105.87506122 -42 98.5625 C-41.17876167 96.36720272 -40.36120694 94.17052477 -39.546875 91.97265625 C-39.12470703 90.83328613 -38.70253906 89.69391602 -38.26757812 88.52001953 C-36.56162527 83.78264892 -35.00721896 79.00173319 -33.4543457 74.21240234 C-29.42987733 61.80695615 -25.06232907 49.58369856 -20.3125 37.4375 C-20.04836304 36.75461914 -19.78422607 36.07173828 -19.51208496 35.36816406 C-14.70169128 22.97264019 -9.44346782 9.64280224 0 0 Z " fill="#E30F64" transform="translate(212,101)"/>
<path d="M0 0 C1.16276153 3.48828458 0.78817413 4.44160112 -0.29296875 7.8671875 C-0.74071655 9.30964844 -0.74071655 9.30964844 -1.19750977 10.78125 C-1.52420654 11.8021875 -1.85090332 12.823125 -2.1875 13.875 C-2.51484131 14.91914063 -2.84218262 15.96328125 -3.17944336 17.0390625 C-3.82788594 19.10739012 -4.47926112 21.17480098 -5.13378906 23.24121094 C-5.82724551 25.44979545 -6.50073465 27.66054279 -7.1484375 29.8828125 C-13.68729502 52.18199327 -25.23683175 79.26476217 -43 95 C-43.66 95 -44.32 95 -45 95 C-45 95.66 -45 96.32 -45 97 C-45.66 97 -46.32 97 -47 97 C-47.32644414 92.83783725 -47.40650982 90.63686538 -45.125 87.0625 C-43 85 -43 85 -41 85 C-35.61313746 81.82313235 -34.50774142 77.73677223 -33 72 C-34.88733345 74.33669855 -36.21192152 76.45033322 -37.5 79.1875 C-39 82 -39 82 -42 83 C-39.95186382 77.65156087 -37.25451991 72.76080625 -34.5 67.75 C-34.00113281 66.82703125 -33.50226563 65.9040625 -32.98828125 64.953125 C-32.50746094 64.0765625 -32.02664062 63.2 -31.53125 62.296875 C-31.09361328 61.49604492 -30.65597656 60.69521484 -30.20507812 59.87011719 C-29 58 -29 58 -27 57 C-26.66073053 54.66752239 -26.32759934 52.33414529 -26 50 C-25.34 49.34 -24.68 48.68 -24 48 C-23.27362943 45.8946603 -22.61564782 43.76533811 -22 41.625 C-20.92066971 37.88950534 -19.88227376 34.41162119 -18 31 C-17.67 31.99 -17.34 32.98 -17 34 C-16.34 34 -15.68 34 -15 34 C-15 32.68 -15 31.36 -15 30 C-15.66 30 -16.32 30 -17 30 C-16.4039523 24.33754685 -14.7506169 18.98387639 -12 14 C-8.875 11.75 -8.875 11.75 -6 10 C-4.84164327 7.02496878 -4.84164327 7.02496878 -4 4 C-1.875 1.625 -1.875 1.625 0 0 Z " fill="#D90F60" transform="translate(218,367)"/>
<path d="M0 0 C0.33 0 0.66 0 1 0 C1.42317708 1.59505208 1.84635417 3.19010417 2.26953125 4.78515625 C3.00443175 7.16863571 3.00443175 7.16863571 4.41015625 9.96484375 C6.70641907 15.23761356 7.55976002 20.87790008 8.625 26.5 C8.8415625 27.60214844 9.058125 28.70429688 9.28125 29.83984375 C10.32613315 35.21260711 11.29803241 40.57145062 12 46 C11.34 46 10.68 46 10 46 C10 46.99 10 47.98 10 49 C9.01 49 8.02 49 7 49 C4.81622886 42.18832093 3.13456869 35.41487593 1.875 28.375 C1.70395752 27.42729736 1.53291504 26.47959473 1.35668945 25.50317383 C-0.04668377 17.38985831 -1.05704261 9.24836152 -1 1 C-0.67 0.67 -0.34 0.34 0 0 Z " fill="#D40E5D" transform="translate(102,379)"/>
<path d="M0 0 C0.33 0.99 0.66 1.98 1 3 C-0.51171875 5.41015625 -0.51171875 5.41015625 -2.6875 8.0625 C-3.39261719 8.94035156 -4.09773437 9.81820313 -4.82421875 10.72265625 C-6.84391195 12.83662598 -8.31662731 13.92786238 -11 15 C-11 15.66 -11 16.32 -11 17 C-11.66 17 -12.32 17 -13 17 C-13.32644414 12.83783725 -13.40650982 10.63686538 -11.125 7.0625 C-9 5 -9 5 -7 5 C-5.21453132 3.89829263 -5.21453132 3.89829263 -3.375 2.5 C-2.74335938 2.0359375 -2.11171875 1.571875 -1.4609375 1.09375 C-0.97882813 0.7328125 -0.49671875 0.371875 0 0 Z " fill="#D70F5F" transform="translate(184,447)"/>
<path d="M0 0 C0.66 0 1.32 0 2 0 C2.25394531 0.89460938 2.50789062 1.78921875 2.76953125 2.7109375 C3.11371094 3.92007812 3.45789063 5.12921875 3.8125 6.375 C4.08271973 7.33031616 4.08271973 7.33031616 4.35839844 8.30493164 C5.42027296 12.04075657 6.55629891 15.74216696 7.75 19.4375 C8.97945291 23.4581433 9.27307854 26.81279579 9 31 C5.15029693 25.22544539 3.60316248 19.82184347 2.52734375 13.0390625 C2.26630859 12.02972656 2.26630859 12.02972656 2 11 C1.34 10.67 0.68 10.34 0 10 C0 6.7 0 3.4 0 0 Z " fill="#270211" transform="translate(141,410)"/>
<path d="M0 0 C2 2 2 2 2.02929688 3.83886719 C1.92681641 4.56750977 1.82433594 5.29615234 1.71875 6.046875 C1.60917969 6.85189453 1.49960937 7.65691406 1.38671875 8.48632812 C1.19529297 9.7305957 1.19529297 9.7305957 1 11 C0.88269531 11.77279297 0.76539063 12.54558594 0.64453125 13.34179688 C0.28012696 15.64773153 -0.10608872 17.94893408 -0.5 20.25 C-0.63019531 21.02601563 -0.76039063 21.80203125 -0.89453125 22.6015625 C-1.5386199 26.41404686 -2.21249734 30.21392954 -3 34 C-3.33 34 -3.66 34 -4 34 C-4.78145537 22.29987659 -2.42871368 11.38621021 0 0 Z " fill="#23020F" transform="translate(269,291)"/>
<path d="M0 0 C0.33 0 0.66 0 1 0 C1.11476722 5.40123215 0.67917842 10.58208638 0 15.9375 C-0.09539062 16.71673828 -0.19078125 17.49597656 -0.2890625 18.29882812 C-0.52229611 20.19968207 -0.76061864 22.09991047 -1 24 C-1.33 23.34 -1.66 22.68 -2 22 C-2.66 22 -3.32 22 -4 22 C-4.2248832 16.5957757 -3.4886411 12.18724757 -2 7.0625 C-1.80921875 6.37865234 -1.6184375 5.69480469 -1.421875 4.99023438 C-0.95595063 3.32455474 -0.47911589 1.66193325 0 0 Z " fill="#330316" transform="translate(262,334)"/>
<path d="M0 0 C-1 3 -1 3 -3.375 5.3125 C-6.14314516 7.87320764 -6.14314516 7.87320764 -7.625 11.25 C-8.07875 12.1575 -8.5325 13.065 -9 14 C-9.99 14.33 -10.98 14.66 -12 15 C-6.67741935 0 -6.67741935 0 0 0 Z " fill="#C60D57" transform="translate(188,435)"/>
<path d="M0 0 C1 2 1 2 0.3984375 4.0234375 C-1.70601087 8.85884941 -3.4093454 12.06708178 -8 15 C-8.66 14.01 -9.32 13.02 -10 12 C-9.38382813 11.7525 -8.76765625 11.505 -8.1328125 11.25 C-5.59373673 9.76189698 -5.03952737 8.66177685 -3.875 6 C-2.7329698 3.43279162 -2.01800698 2.01800698 0 0 Z " fill="#17010A" transform="translate(185,438)"/>
<path d="M0 0 C0.33 0 0.66 0 1 0 C1.40368295 6.45892714 0.5915262 11.06108578 -2 17 C-2.33 17 -2.66 17 -3 17 C-3.34548714 10.66606918 -2.29342747 5.89738492 0 0 Z " fill="#D40E5D" transform="translate(264,337)"/>
<path d="M0 0 C0.33 0 0.66 0 1 0 C1 4.29 1 8.58 1 13 C-0.98 13.99 -0.98 13.99 -3 15 C-3.1953125 8.9453125 -3.1953125 8.9453125 -3 7 C-2.34 6.34 -1.68 5.68 -1 5 C-0.35232207 2.42938689 -0.35232207 2.42938689 0 0 Z " fill="#8E093E" transform="translate(195,410)"/>
<path d="M0 0 C0.33 0.66 0.66 1.32 1 2 C1.66 2 2.32 2 3 2 C2.57448104 3.91936213 2.13408062 5.83542874 1.6875 7.75 C1.44386719 8.81734375 1.20023438 9.8846875 0.94921875 10.984375 C0.0245175 13.92210901 -1.00092358 15.69294262 -3 18 C-2.19500136 11.96251023 -1.11517502 5.98729887 0 0 Z " fill="#BB0D52" transform="translate(229,339)"/>
<path d="M0 0 C3.8359375 0.78125 3.8359375 0.78125 5.3125 2.75 C6.1568112 5.51320029 5.76443018 7.24805136 5 10 C0.76169024 7.17446016 1.02284652 4.87819112 0 0 Z " fill="#CD0E5A" transform="translate(128,439)"/>
<path d="M0 0 C0.33 0 0.66 0 1 0 C1.2396943 5.63281599 0.38529821 10.54538831 -1 16 C-1.33 16 -1.66 16 -2 16 C-2.05402274 13.89611431 -2.09280256 11.79183286 -2.125 9.6875 C-2.14820313 8.51574219 -2.17140625 7.34398437 -2.1953125 6.13671875 C-2 3 -2 3 0 0 Z " fill="#100107" transform="translate(267,309)"/>
<path d="M0 0 C0.99 0.33 1.98 0.66 3 1 C4.47666292 4.49029418 4.07164685 8.27436386 4 12 C1.21366885 7.82050327 0 5.06624674 0 0 Z " fill="#130108" transform="translate(146,429)"/>
<path d="M0 0 C0.33 0 0.66 0 1 0 C1.19294408 4.82360189 0.75747614 8.49646738 -1 13 C-1.33 13 -1.66 13 -2 13 C-2.19294408 8.17639811 -1.75747614 4.50353262 0 0 Z " fill="#1F020E" transform="translate(262,334)"/>
<path d="M0 0 C0.99 0.33 1.98 0.66 3 1 C3.66 0.67 4.32 0.34 5 0 C4.67 1.65 4.34 3.3 4 5 C3.34 5 2.68 5 2 5 C2 5.66 2 6.32 2 7 C1.34 7 0.68 7 0 7 C0 4.69 0 2.38 0 0 Z " fill="#940A41" transform="translate(171,457)"/>
<path d="M0 0 C0.33 0.66 0.66 1.32 1 2 C1.66 2.33 2.32 2.66 3 3 C2.67 4.98 2.34 6.96 2 9 C1.01 8.67 0.02 8.34 -1 8 C-0.67 5.36 -0.34 2.72 0 0 Z " fill="#BD0D53" transform="translate(267,316)"/>
<path d="M0 0 C3.67230705 3.07999946 4.56802365 5.2482602 5 10 C4.34 10 3.68 10 3 10 C1.87119943 6.68885166 0.78697325 3.41021743 0 0 Z " fill="#9C0A45" transform="translate(116,434)"/>
<path d="M0 0 C0.99 0 1.98 0 3 0 C2.67 1.65 2.34 3.3 2 5 C0.68 5 -0.64 5 -2 5 C-1.34 3.35 -0.68 1.7 0 0 Z " fill="#1E020D" transform="translate(226,440)"/>
<path d="M0 0 C1.0326802 2.78823655 1.04509293 3.8677274 0.0625 6.75 C-0.288125 7.4925 -0.63875 8.235 -1 9 C-1.33 8.34 -1.66 7.68 -2 7 C-2.66 6.67 -3.32 6.34 -4 6 C-3.34 6 -2.68 6 -2 6 C-1.855625 5.195625 -1.71125 4.39125 -1.5625 3.5625 C-1 1 -1 1 0 0 Z " fill="#5E0629" transform="translate(224,404)"/>
</svg>
